<mxfile host="app.diagrams.net" modified="2023-12-22T15:19:10.870Z" agent="Mozilla/5.0 (Windows NT 10.0; Win64; x64) AppleWebKit/537.36 (KHTML, like Gecko) Chrome/120.0.0.0 Safari/537.36 Edg/120.0.0.0" etag="dK2w4yw48ivMAqULeCfN" version="22.1.11" type="google">
  <diagram name="Page-1" id="f1J1t4XvUqQqnPYL-ajw">
    <mxGraphModel grid="1" page="1" gridSize="10" guides="1" tooltips="1" connect="1" arrows="1" fold="1" pageScale="1" pageWidth="850" pageHeight="1100" math="0" shadow="0">
      <root>
        <mxCell id="0" />
        <mxCell id="1" parent="0" />
        <mxCell id="XwpI5Zz5qXsxQlmUyBzT-2" value="" style="ellipse;html=1;shape=startState;fontFamily=Tahoma;fontSize=14;" vertex="1" parent="1">
          <mxGeometry x="270" y="30" width="60" height="50" as="geometry" />
        </mxCell>
        <mxCell id="XwpI5Zz5qXsxQlmUyBzT-4" value="" style="endArrow=classic;html=1;rounded=0;exitX=0.5;exitY=1;exitDx=0;exitDy=0;" edge="1" parent="1" source="XwpI5Zz5qXsxQlmUyBzT-2">
          <mxGeometry width="50" height="50" relative="1" as="geometry">
            <mxPoint x="260" y="130" as="sourcePoint" />
            <mxPoint x="300" y="130" as="targetPoint" />
          </mxGeometry>
        </mxCell>
        <mxCell id="XwpI5Zz5qXsxQlmUyBzT-6" value="Search for a product" style="rounded=0;whiteSpace=wrap;html=1;" vertex="1" parent="1">
          <mxGeometry x="240" y="130" width="120" height="60" as="geometry" />
        </mxCell>
        <mxCell id="XwpI5Zz5qXsxQlmUyBzT-7" value="" style="endArrow=classic;html=1;rounded=0;exitX=0.5;exitY=1;exitDx=0;exitDy=0;" edge="1" parent="1" source="XwpI5Zz5qXsxQlmUyBzT-6">
          <mxGeometry width="50" height="50" relative="1" as="geometry">
            <mxPoint x="270" y="240" as="sourcePoint" />
            <mxPoint x="300" y="250" as="targetPoint" />
          </mxGeometry>
        </mxCell>
        <mxCell id="XwpI5Zz5qXsxQlmUyBzT-8" value="Display search results" style="rounded=0;whiteSpace=wrap;html=1;" vertex="1" parent="1">
          <mxGeometry x="240" y="250" width="120" height="60" as="geometry" />
        </mxCell>
        <mxCell id="XwpI5Zz5qXsxQlmUyBzT-9" value="" style="endArrow=classic;html=1;rounded=0;exitX=0.5;exitY=1;exitDx=0;exitDy=0;" edge="1" parent="1" source="XwpI5Zz5qXsxQlmUyBzT-8">
          <mxGeometry width="50" height="50" relative="1" as="geometry">
            <mxPoint x="250" y="370" as="sourcePoint" />
            <mxPoint x="300" y="360" as="targetPoint" />
          </mxGeometry>
        </mxCell>
        <mxCell id="XwpI5Zz5qXsxQlmUyBzT-10" value="Select a product to view" style="rounded=0;whiteSpace=wrap;html=1;" vertex="1" parent="1">
          <mxGeometry x="240" y="360" width="120" height="60" as="geometry" />
        </mxCell>
        <mxCell id="XwpI5Zz5qXsxQlmUyBzT-11" value="" style="endArrow=classic;html=1;rounded=0;exitX=0.5;exitY=1;exitDx=0;exitDy=0;" edge="1" parent="1" source="XwpI5Zz5qXsxQlmUyBzT-10">
          <mxGeometry width="50" height="50" relative="1" as="geometry">
            <mxPoint x="260" y="470" as="sourcePoint" />
            <mxPoint x="300" y="470" as="targetPoint" />
          </mxGeometry>
        </mxCell>
        <mxCell id="XwpI5Zz5qXsxQlmUyBzT-12" value="View product details" style="rounded=0;whiteSpace=wrap;html=1;" vertex="1" parent="1">
          <mxGeometry x="240" y="470" width="120" height="60" as="geometry" />
        </mxCell>
        <mxCell id="XwpI5Zz5qXsxQlmUyBzT-13" value="Desired product?" style="rhombus;whiteSpace=wrap;html=1;" vertex="1" parent="1">
          <mxGeometry x="260" y="590" width="80" height="80" as="geometry" />
        </mxCell>
        <mxCell id="XwpI5Zz5qXsxQlmUyBzT-14" value="" style="endArrow=classic;html=1;rounded=0;entryX=0.5;entryY=0;entryDx=0;entryDy=0;exitX=0.5;exitY=1;exitDx=0;exitDy=0;" edge="1" parent="1" source="XwpI5Zz5qXsxQlmUyBzT-12" target="XwpI5Zz5qXsxQlmUyBzT-13">
          <mxGeometry width="50" height="50" relative="1" as="geometry">
            <mxPoint x="260" y="580" as="sourcePoint" />
            <mxPoint x="310" y="530" as="targetPoint" />
          </mxGeometry>
        </mxCell>
        <mxCell id="XwpI5Zz5qXsxQlmUyBzT-15" value="" style="endArrow=classic;html=1;rounded=0;exitX=0.5;exitY=1;exitDx=0;exitDy=0;" edge="1" parent="1" source="XwpI5Zz5qXsxQlmUyBzT-13">
          <mxGeometry width="50" height="50" relative="1" as="geometry">
            <mxPoint x="250" y="720" as="sourcePoint" />
            <mxPoint x="300" y="720" as="targetPoint" />
          </mxGeometry>
        </mxCell>
        <mxCell id="XwpI5Zz5qXsxQlmUyBzT-16" value="Yes" style="text;html=1;strokeColor=none;fillColor=none;align=center;verticalAlign=middle;whiteSpace=wrap;rounded=0;" vertex="1" parent="1">
          <mxGeometry x="290" y="670" width="60" height="30" as="geometry" />
        </mxCell>
        <mxCell id="XwpI5Zz5qXsxQlmUyBzT-17" value="" style="endArrow=classic;html=1;rounded=0;entryX=0;entryY=0.5;entryDx=0;entryDy=0;" edge="1" parent="1" target="XwpI5Zz5qXsxQlmUyBzT-19">
          <mxGeometry width="50" height="50" relative="1" as="geometry">
            <mxPoint x="340" y="630" as="sourcePoint" />
            <mxPoint x="390" y="630" as="targetPoint" />
          </mxGeometry>
        </mxCell>
        <mxCell id="XwpI5Zz5qXsxQlmUyBzT-18" value="No" style="text;html=1;strokeColor=none;fillColor=none;align=center;verticalAlign=middle;whiteSpace=wrap;rounded=0;" vertex="1" parent="1">
          <mxGeometry x="330" y="600" width="60" height="30" as="geometry" />
        </mxCell>
        <mxCell id="XwpI5Zz5qXsxQlmUyBzT-19" value="Return back" style="rounded=0;whiteSpace=wrap;html=1;" vertex="1" parent="1">
          <mxGeometry x="410" y="600" width="120" height="60" as="geometry" />
        </mxCell>
        <mxCell id="XwpI5Zz5qXsxQlmUyBzT-28" value="" style="edgeStyle=elbowEdgeStyle;elbow=horizontal;endArrow=classic;html=1;curved=0;rounded=0;endSize=8;startSize=8;entryX=1;entryY=0.5;entryDx=0;entryDy=0;exitX=1;exitY=0;exitDx=0;exitDy=0;" edge="1" parent="1" source="XwpI5Zz5qXsxQlmUyBzT-19" target="XwpI5Zz5qXsxQlmUyBzT-8">
          <mxGeometry width="50" height="50" relative="1" as="geometry">
            <mxPoint x="490" y="530" as="sourcePoint" />
            <mxPoint x="540" y="480" as="targetPoint" />
            <Array as="points">
              <mxPoint x="470" y="450" />
            </Array>
          </mxGeometry>
        </mxCell>
        <mxCell id="oD15uUjBtrhCdeG2hfxR-1" value="Add to cart" style="rounded=0;whiteSpace=wrap;html=1;" vertex="1" parent="1">
          <mxGeometry x="240" y="720" width="120" height="60" as="geometry" />
        </mxCell>
        <mxCell id="oD15uUjBtrhCdeG2hfxR-2" value="" style="endArrow=classic;html=1;rounded=0;exitX=0.5;exitY=1;exitDx=0;exitDy=0;" edge="1" parent="1" source="oD15uUjBtrhCdeG2hfxR-1">
          <mxGeometry width="50" height="50" relative="1" as="geometry">
            <mxPoint x="260" y="830" as="sourcePoint" />
            <mxPoint x="300" y="840" as="targetPoint" />
          </mxGeometry>
        </mxCell>
        <mxCell id="oD15uUjBtrhCdeG2hfxR-3" value="View the cart" style="rounded=0;whiteSpace=wrap;html=1;" vertex="1" parent="1">
          <mxGeometry x="240" y="840" width="120" height="60" as="geometry" />
        </mxCell>
        <mxCell id="oD15uUjBtrhCdeG2hfxR-4" value="" style="endArrow=classic;html=1;rounded=0;exitX=0.5;exitY=1;exitDx=0;exitDy=0;" edge="1" parent="1" source="oD15uUjBtrhCdeG2hfxR-3">
          <mxGeometry width="50" height="50" relative="1" as="geometry">
            <mxPoint x="230" y="990" as="sourcePoint" />
            <mxPoint x="300" y="960" as="targetPoint" />
          </mxGeometry>
        </mxCell>
        <mxCell id="oD15uUjBtrhCdeG2hfxR-5" value="Proceed to checkout" style="rounded=0;whiteSpace=wrap;html=1;" vertex="1" parent="1">
          <mxGeometry x="240" y="960" width="120" height="60" as="geometry" />
        </mxCell>
        <mxCell id="oD15uUjBtrhCdeG2hfxR-6" value="" style="endArrow=classic;html=1;rounded=0;exitX=0.5;exitY=1;exitDx=0;exitDy=0;" edge="1" parent="1" source="oD15uUjBtrhCdeG2hfxR-5">
          <mxGeometry width="50" height="50" relative="1" as="geometry">
            <mxPoint x="260" y="1080" as="sourcePoint" />
            <mxPoint x="300" y="1080" as="targetPoint" />
          </mxGeometry>
        </mxCell>
        <mxCell id="oD15uUjBtrhCdeG2hfxR-8" value="" style="html=1;points=[];perimeter=orthogonalPerimeter;fillColor=strokeColor;direction=south;" vertex="1" parent="1">
          <mxGeometry x="160" y="1200" width="320" height="5" as="geometry" />
        </mxCell>
        <mxCell id="oD15uUjBtrhCdeG2hfxR-10" value="Choose payment options" style="rounded=0;whiteSpace=wrap;html=1;" vertex="1" parent="1">
          <mxGeometry x="240" y="1080" width="120" height="60" as="geometry" />
        </mxCell>
        <mxCell id="oD15uUjBtrhCdeG2hfxR-11" value="" style="endArrow=classic;html=1;rounded=0;exitX=0.5;exitY=1;exitDx=0;exitDy=0;" edge="1" parent="1" source="oD15uUjBtrhCdeG2hfxR-10">
          <mxGeometry width="50" height="50" relative="1" as="geometry">
            <mxPoint x="250" y="1190" as="sourcePoint" />
            <mxPoint x="300" y="1200" as="targetPoint" />
          </mxGeometry>
        </mxCell>
        <mxCell id="oD15uUjBtrhCdeG2hfxR-12" value="" style="endArrow=classic;html=1;rounded=0;entryX=0.577;entryY=-0.067;entryDx=0;entryDy=0;entryPerimeter=0;" edge="1" parent="1" target="oD15uUjBtrhCdeG2hfxR-14">
          <mxGeometry width="50" height="50" relative="1" as="geometry">
            <mxPoint x="230" y="1210" as="sourcePoint" />
            <mxPoint x="230" y="1280" as="targetPoint" />
          </mxGeometry>
        </mxCell>
        <mxCell id="oD15uUjBtrhCdeG2hfxR-13" value="" style="endArrow=classic;html=1;rounded=0;exitX=0.56;exitY=0.154;exitDx=0;exitDy=0;exitPerimeter=0;" edge="1" parent="1" source="oD15uUjBtrhCdeG2hfxR-8">
          <mxGeometry width="50" height="50" relative="1" as="geometry">
            <mxPoint x="370" y="1210" as="sourcePoint" />
            <mxPoint x="430" y="1290" as="targetPoint" />
            <Array as="points">
              <mxPoint x="431" y="1240" />
            </Array>
          </mxGeometry>
        </mxCell>
        <mxCell id="oD15uUjBtrhCdeG2hfxR-14" value="Cash on delivery" style="rounded=0;whiteSpace=wrap;html=1;" vertex="1" parent="1">
          <mxGeometry x="160" y="1290" width="120" height="60" as="geometry" />
        </mxCell>
        <mxCell id="oD15uUjBtrhCdeG2hfxR-15" value="Credit Card" style="rounded=0;whiteSpace=wrap;html=1;" vertex="1" parent="1">
          <mxGeometry x="365" y="1290" width="120" height="60" as="geometry" />
        </mxCell>
        <mxCell id="oD15uUjBtrhCdeG2hfxR-17" value="" style="html=1;points=[];perimeter=orthogonalPerimeter;fillColor=strokeColor;direction=south;" vertex="1" parent="1">
          <mxGeometry x="170" y="1420" width="310" height="5" as="geometry" />
        </mxCell>
        <mxCell id="oD15uUjBtrhCdeG2hfxR-18" value="" style="endArrow=classic;html=1;rounded=0;exitX=0.5;exitY=1;exitDx=0;exitDy=0;" edge="1" parent="1" source="oD15uUjBtrhCdeG2hfxR-14">
          <mxGeometry width="50" height="50" relative="1" as="geometry">
            <mxPoint x="170" y="1410" as="sourcePoint" />
            <mxPoint x="220" y="1420" as="targetPoint" />
          </mxGeometry>
        </mxCell>
        <mxCell id="oD15uUjBtrhCdeG2hfxR-19" value="" style="endArrow=classic;html=1;rounded=0;exitX=0.5;exitY=1;exitDx=0;exitDy=0;entryX=-0.24;entryY=0.185;entryDx=0;entryDy=0;entryPerimeter=0;" edge="1" parent="1" source="oD15uUjBtrhCdeG2hfxR-15" target="oD15uUjBtrhCdeG2hfxR-17">
          <mxGeometry width="50" height="50" relative="1" as="geometry">
            <mxPoint x="380" y="1410" as="sourcePoint" />
            <mxPoint x="425" y="1410" as="targetPoint" />
          </mxGeometry>
        </mxCell>
        <mxCell id="oD15uUjBtrhCdeG2hfxR-20" value="" style="endArrow=classic;html=1;rounded=0;" edge="1" parent="1">
          <mxGeometry width="50" height="50" relative="1" as="geometry">
            <mxPoint x="330" y="1430" as="sourcePoint" />
            <mxPoint x="330" y="1510" as="targetPoint" />
          </mxGeometry>
        </mxCell>
        <mxCell id="oD15uUjBtrhCdeG2hfxR-21" value="Confirm purchase" style="rounded=0;whiteSpace=wrap;html=1;" vertex="1" parent="1">
          <mxGeometry x="270" y="1520" width="120" height="60" as="geometry" />
        </mxCell>
        <mxCell id="oD15uUjBtrhCdeG2hfxR-22" value="" style="endArrow=classic;html=1;rounded=0;exitX=0.5;exitY=1;exitDx=0;exitDy=0;" edge="1" parent="1" source="oD15uUjBtrhCdeG2hfxR-21">
          <mxGeometry width="50" height="50" relative="1" as="geometry">
            <mxPoint x="290" y="1630" as="sourcePoint" />
            <mxPoint x="330" y="1650" as="targetPoint" />
          </mxGeometry>
        </mxCell>
        <mxCell id="oD15uUjBtrhCdeG2hfxR-23" value="" style="ellipse;whiteSpace=wrap;html=1;aspect=fixed;" vertex="1" parent="1">
          <mxGeometry x="305" y="1650" width="50" height="50" as="geometry" />
        </mxCell>
      </root>
    </mxGraphModel>
  </diagram>
</mxfile>
